<svg xmlns="http://www.w3.org/2000/svg" viewBox="0 0 1600 900" role="img" aria-labelledby="title desc">
  <title id="title">Amanah Jaya Teknik</title>
  <desc id="desc">Logo Amanah Jaya Teknik menyerupai contoh gambar servis AC</desc>
  <defs>
    <linearGradient id="bg" x1="0" x2="1" y1="0" y2="1">
      <stop offset="0%" stop-color="#dfefff"/>
      <stop offset="100%" stop-color="#d6ebff"/>
    </linearGradient>
    <linearGradient id="panel" x1="0" x2="1" y1="0" y2="1">
      <stop offset="0%" stop-color="#1b5bb8"/>
      <stop offset="100%" stop-color="#0d6dba"/>
    </linearGradient>
  </defs>

  <rect width="1600" height="900" fill="#f2f5f8"/>

  <g transform="translate(90 85)">
    <rect x="0" y="0" width="1420" height="720" rx="44" fill="url(#bg)" stroke="#153c63" stroke-width="10"/>

    <g transform="translate(64 120)">
      <g transform="translate(0 0)">
        <rect x="0" y="0" width="345" height="230" rx="32" fill="#dceeff" stroke="#153c63" stroke-width="10"/>
        <rect x="32" y="40" width="280" height="120" rx="18" fill="#edf8ff" stroke="#153c63" stroke-width="8"/>
        <rect x="62" y="68" width="220" height="20" rx="10" fill="#1b5bb8" opacity="0.85"/>
        <rect x="50" y="100" width="245" height="16" rx="8" fill="#a9d0ef"/>
        <rect x="78" y="128" width="190" height="16" rx="8" fill="#a9d0ef"/>
        <path d="M12 190h322" stroke="#153c63" stroke-width="8" stroke-linecap="round"/>
        <circle cx="104" cy="186" r="22" fill="#edf8ff" stroke="#153c63" stroke-width="8"/>
        <circle cx="239" cy="186" r="22" fill="#edf8ff" stroke="#153c63" stroke-width="8"/>
      </g>

      <g transform="translate(385 0)">
        <rect x="0" y="0" width="345" height="230" rx="32" fill="#dceeff" stroke="#153c63" stroke-width="10"/>
        <rect x="40" y="44" width="265" height="116" rx="20" fill="#edf8ff" stroke="#153c63" stroke-width="8"/>
        <path d="M68 114l56-52 44 42 52-70 66 58" fill="none" stroke="#1b5bb8" stroke-width="8" stroke-linecap="round" stroke-linejoin="round"/>
        <path d="M60 170h228" stroke="#153c63" stroke-width="8" stroke-linecap="round"/>
        <circle cx="90" cy="188" r="18" fill="#edf8ff" stroke="#153c63" stroke-width="8"/>
        <circle cx="252" cy="188" r="18" fill="#edf8ff" stroke="#153c63" stroke-width="8"/>
      </g>

      <g transform="translate(770 0)">
        <rect x="0" y="0" width="345" height="230" rx="32" fill="#dceeff" stroke="#153c63" stroke-width="10"/>
        <rect x="38" y="44" width="270" height="116" rx="20" fill="#edf8ff" stroke="#153c63" stroke-width="8"/>
        <rect x="106" y="62" width="132" height="80" rx="16" fill="#1b5bb8" opacity="0.9"/>
        <path d="M58 170h228" stroke="#153c63" stroke-width="8" stroke-linecap="round"/>
        <circle cx="90" cy="188" r="18" fill="#edf8ff" stroke="#153c63" stroke-width="8"/>
        <circle cx="252" cy="188" r="18" fill="#edf8ff" stroke="#153c63" stroke-width="8"/>
      </g>
    </g>

    <g transform="translate(1050 80)">
      <rect x="0" y="90" width="130" height="210" rx="26" fill="#edf8ff" stroke="#153c63" stroke-width="8"/>
      <rect x="26" y="128" width="78" height="118" rx="16" fill="#d8ecfc" stroke="#153c63" stroke-width="7"/>
      <rect x="-18" y="66" width="166" height="52" rx="17" fill="url(#panel)" stroke="#153c63" stroke-width="8"/>
      <circle cx="65" cy="300" r="26" fill="#edf8ff" stroke="#153c63" stroke-width="8"/>
      <circle cx="65" cy="300" r="10" fill="#153c63"/>
      <path d="M110 176c36 0 66 28 66 68" fill="none" stroke="#153c63" stroke-width="9" stroke-linecap="round"/>
      <path d="M20 176c-36 0-66 28-66 68" fill="none" stroke="#153c63" stroke-width="9" stroke-linecap="round"/>
      <circle cx="-42" cy="314" r="28" fill="#edf8ff" stroke="#153c63" stroke-width="8"/>
      <circle cx="172" cy="314" r="28" fill="#edf8ff" stroke="#153c63" stroke-width="8"/>
      <path d="M35 108l12-18 18 18" fill="none" stroke="#edf8ff" stroke-width="7" stroke-linecap="round"/>
      <path d="M86 108l12-18 18 18" fill="none" stroke="#edf8ff" stroke-width="7" stroke-linecap="round"/>
    </g>

    <g transform="translate(70 400)">
      <text x="0" y="0" font-family="Arial, Helvetica, sans-serif" font-weight="900" font-size="96" fill="#12304a" letter-spacing="2">AMANAH</text>
      <text x="0" y="94" font-family="Arial, Helvetica, sans-serif" font-weight="900" font-size="96" fill="#12304a" letter-spacing="2">JAYA TEKNIK</text>
    </g>
  </g>
</svg>
